<?xml version="1.0" encoding="utf-8"?>
<!-- Generator: Adobe Illustrator 24.0.3, SVG Export Plug-In . SVG Version: 6.00 Build 0)  -->
<svg version="1.1" id="Calque_1" xmlns="http://www.w3.org/2000/svg" xmlns:xlink="http://www.w3.org/1999/xlink" x="0px" y="0px"
	 viewBox="0 0 724 450" style="enable-background:new 0 0 724 450;" xml:space="preserve">
<style type="text/css">
	.st0{fill-rule:evenodd;clip-rule:evenodd;fill:#F7F7F7;}
	.st1{fill:none;}
	.st2{fill-rule:evenodd;clip-rule:evenodd;fill:#DBDBDB;}
	.st3{fill:#4A4A4A;}
	.st4{font-family:'Avenir-Medium';}
	.st5{font-size:13px;}
	.st6{fill:#9CD04E;}
	.st7{font-family:'Avenir-Black';}
	.st8{font-size:12px;}
	.st9{fill:#FE485F;}
	.st10{filter:url(#filter-4);}
	.st11{fill:#FFFFFF;}
	.st12{filter:url(#filter-6);}
	.st13{font-size:11px;}
	.st14{filter:url(#filter-8);}
	.st15{filter:url(#filter-10);}
</style>
<filter  filterUnits="objectBoundingBox" height="170.8%" id="filter-8" width="117.0%" x="-8.5%" y="-27.1%">
	<feOffset  dx="0" dy="2" in="SourceAlpha" result="shadowOffsetOuter1"></feOffset>
	<feGaussianBlur  in="shadowOffsetOuter1" result="shadowBlurOuter1" stdDeviation="2.5"></feGaussianBlur>
	<feColorMatrix  in="shadowBlurOuter1" type="matrix" values="0 0 0 0 0   0 0 0 0 0   0 0 0 0 0  0 0 0 0.15 0"></feColorMatrix>
</filter>
<filter  filterUnits="objectBoundingBox" height="170.8%" id="filter-6" width="117.0%" x="-8.5%" y="-27.1%">
	<feOffset  dx="0" dy="2" in="SourceAlpha" result="shadowOffsetOuter1"></feOffset>
	<feGaussianBlur  in="shadowOffsetOuter1" result="shadowBlurOuter1" stdDeviation="2.5"></feGaussianBlur>
	<feColorMatrix  in="shadowBlurOuter1" type="matrix" values="0 0 0 0 0   0 0 0 0 0   0 0 0 0 0  0 0 0 0.15 0"></feColorMatrix>
</filter>
<filter  filterUnits="objectBoundingBox" height="170.8%" id="filter-4" width="117.0%" x="-8.5%" y="-27.1%">
	<feOffset  dx="0" dy="2" in="SourceAlpha" result="shadowOffsetOuter1"></feOffset>
	<feGaussianBlur  in="shadowOffsetOuter1" result="shadowBlurOuter1" stdDeviation="2.5"></feGaussianBlur>
	<feColorMatrix  in="shadowBlurOuter1" type="matrix" values="0 0 0 0 0   0 0 0 0 0   0 0 0 0 0  0 0 0 0.15 0"></feColorMatrix>
</filter>
<filter  filterUnits="objectBoundingBox" height="170.8%" id="filter-10" width="117.0%" x="-8.5%" y="-27.1%">
	<feOffset  dx="0" dy="2" in="SourceAlpha" result="shadowOffsetOuter1"></feOffset>
	<feGaussianBlur  in="shadowOffsetOuter1" result="shadowBlurOuter1" stdDeviation="2.5"></feGaussianBlur>
	<feColorMatrix  in="shadowBlurOuter1" type="matrix" values="0 0 0 0 0   0 0 0 0 0   0 0 0 0 0  0 0 0 0.15 0"></feColorMatrix>
</filter>
<title>contenu_marketing</title>
<desc>Created with Sketch.</desc>
<g id="Page-1">
	<g id="Marketing---Liste-des-promotions" transform="translate(-238.000000, -123.000000)">
		<g id="contenu_marketing" transform="translate(250.000000, 130.000000)">
			<path id="Rectangle-21" class="st0" d="M-7-7h84c2.8,0,5,2.2,5,5v440c0,2.8-2.2,5-5,5H-7c-2.8,0-5-2.2-5-5V-2C-12-4.8-9.8-7-7-7z
				"/>
			<path id="Rectangle-21-Copy-2" class="st1" d="M87-7h80c2.8,0,5,2.2,5,5v458c0,2.8-2.2,5-5,5H87c-2.8,0-5-2.2-5-5V-2
				C82-4.8,84.2-7,87-7z"/>
			<path id="Rectangle-21-Copy-7" class="st1" d="M517-7h80c2.8,0,5,2.2,5,5v440c0,2.8-2.2,5-5,5h-80c-2.8,0-5-2.2-5-5V-2
				C512-4.8,514.2-7,517-7z"/>
			<path id="Rectangle-21-Copy-3" class="st0" d="M177-7h80c2.8,0,5,2.2,5,5v440c0,2.8-2.2,5-5,5h-80c-2.8,0-5-2.2-5-5V-2
				C172-4.8,174.2-7,177-7z"/>
			<path id="Rectangle-21-Copy-4" class="st1" d="M267-7h80c2.8,0,5,2.2,5,5v440c0,2.8-2.2,5-5,5h-80c-2.8,0-5-2.2-5-5V-2
				C262-4.8,264.2-7,267-7z"/>
			<path id="Rectangle-21-Copy-5" class="st0" d="M357-7h150c2.8,0,5,2.2,5,5v440c0,2.8-2.2,5-5,5H357c-2.8,0-5-2.2-5-5V-2
				C352-4.8,354.2-7,357-7z"/>
			<path id="Rectangle-21-Copy-6" class="st0" d="M607-7h100c2.8,0,5,2.2,5,5v440c0,2.8-2.2,5-5,5H607c-2.8,0-5-2.2-5-5V-2
				C602-4.8,604.2-7,607-7z"/>
			<path id="Rectangle-21_1_" class="st2" d="M-10-7h720c1.1,0,2,0.9,2,2v26c0,1.1-0.9,2-2,2H-10c-1.1,0-2-0.9-2-2V-5
				C-12-6.1-11.1-7-10-7z"/>
			<text transform="matrix(1 0 0 1 -3 13)" class="st3 st4 st5">Nom</text>
			<text transform="matrix(1 0 0 1 92 13)" class="st3 st4 st5">Priorité</text>
			<text transform="matrix(1 0 0 1 182 13)" class="st3 st4 st5">Code</text>
			<text transform="matrix(1 0 0 1 272 13)" class="st3 st4 st5">Qté</text>
			<text transform="matrix(1 0 0 1 370.1615 13)" class="st3 st4 st5">Jusqu’au</text>
			<text transform="matrix(1 0 0 1 522 13)" class="st3 st4 st5">Etat</text>
			<g id="Liste-Marketing" transform="translate(10.000000, 50.000000)">
				<path id="Rectangle-21-Copy-6_1_" class="st0" d="M-20-27h720c1.1,0,2,0.9,2,2V1c0,1.1-0.9,2-2,2H-20c-1.1,0-2-0.9-2-2v-26
					C-22-26.1-21.1-27-20-27z"/>
				<text transform="matrix(1 0 0 1 555.88 -7)" class="st6 st7 st8">Actif</text>
				<text transform="matrix(1 0 0 1 380.248 -7)" class="st3 st4 st8">30/06/2020 22:00:00</text>
				<text transform="matrix(1 0 0 1 325.328 -7)" class="st3 st4 st8">1</text>
				<text transform="matrix(1 0 0 1 187.304 -7)" class="st3 st4 st8">JVZIKBCZ</text>
				<text transform="matrix(1 0 0 1 145.328 -7)" class="st3 st4 st8">1</text>
				<text transform="matrix(1 0 0 1 -13 -7)" class="st3 st4 st8">Avoir</text>
			</g>
			<g id="Liste-Marketing-claire" transform="translate(10.000000, 80.000000)">
				<path id="Rectangle-21-Copy-6_2_" class="st1" d="M-20-27h720c1.1,0,2,0.9,2,2V1c0,1.1-0.9,2-2,2H-20c-1.1,0-2-0.9-2-2v-26
					C-22-26.1-21.1-27-20-27z"/>
				<text transform="matrix(1 0 0 1 555.88 -7)" class="st9 st7 st8">Actif</text>
				<text transform="matrix(1 0 0 1 380.248 -7)" class="st3 st4 st8">30/06/2020 22:00:00</text>
				<text transform="matrix(1 0 0 1 325.328 -7)" class="st3 st4 st8">1</text>
				<text transform="matrix(1 0 0 1 187.304 -7)" class="st3 st4 st8">JVZIKBCZ</text>
				<text transform="matrix(1 0 0 1 145.328 -7)" class="st3 st4 st8">1</text>
				<text transform="matrix(1 0 0 1 -13 -7)" class="st3 st4 st8">Avoir</text>
			</g>
			<g id="Liste-Marketing_1_" transform="translate(10.000000, 110.000000)">
				<path id="Rectangle-21-Copy-6_3_" class="st0" d="M-20-27h720c1.1,0,2,0.9,2,2V1c0,1.1-0.9,2-2,2H-20c-1.1,0-2-0.9-2-2v-26
					C-22-26.1-21.1-27-20-27z"/>
				<text transform="matrix(1 0 0 1 555.88 -7)" class="st6 st7 st8">Actif</text>
				<text transform="matrix(1 0 0 1 380.248 -7)" class="st3 st4 st8">30/06/2020 22:00:00</text>
				<text transform="matrix(1 0 0 1 325.328 -7)" class="st3 st4 st8">1</text>
				<text transform="matrix(1 0 0 1 187.304 -7)" class="st3 st4 st8">JVZIKBCZ</text>
				<text transform="matrix(1 0 0 1 145.328 -7)" class="st3 st4 st8">1</text>
				<text transform="matrix(1 0 0 1 -13 -7)" class="st3 st4 st8">Avoir</text>
			</g>
			<g id="Liste-Marketing-claire_1_" transform="translate(10.000000, 140.000000)">
				<path id="Rectangle-21-Copy-6_4_" class="st1" d="M-20-27h720c1.1,0,2,0.9,2,2V1c0,1.1-0.9,2-2,2H-20c-1.1,0-2-0.9-2-2v-26
					C-22-26.1-21.1-27-20-27z"/>
				<text transform="matrix(1 0 0 1 555.88 -7)" class="st9 st7 st8">Actif</text>
				<text transform="matrix(1 0 0 1 380.248 -7)" class="st3 st4 st8">30/06/2020 22:00:00</text>
				<text transform="matrix(1 0 0 1 325.328 -7)" class="st3 st4 st8">1</text>
				<text transform="matrix(1 0 0 1 187.304 -7)" class="st3 st4 st8">JVZIKBCZ</text>
				<text transform="matrix(1 0 0 1 145.328 -7)" class="st3 st4 st8">1</text>
				<text transform="matrix(1 0 0 1 -13 -7)" class="st3 st4 st8">Avoir</text>
			</g>
			<g id="Rectangle-Copy-10">
				<g class="st10">
					<path id="path-3_2_" d="M619,26h76c6.6,0,12,5.4,12,12l0,0c0,6.6-5.4,12-12,12h-76c-6.6,0-12-5.4-12-12l0,0
						C607,31.4,612.4,26,619,26z"/>
				</g>
				<g>
					<path id="path-3_1_" class="st11" d="M619,26h76c6.6,0,12,5.4,12,12l0,0c0,6.6-5.4,12-12,12h-76c-6.6,0-12-5.4-12-12l0,0
						C607,31.4,612.4,26,619,26z"/>
				</g>
			</g>
			<g id="Rectangle-Copy-11">
				<g class="st12">
					<path id="path-5_2_" d="M619,56h76c6.6,0,12,5.4,12,12l0,0c0,6.6-5.4,12-12,12h-76c-6.6,0-12-5.4-12-12l0,0
						C607,61.4,612.4,56,619,56z"/>
				</g>
				<g>
					<path id="path-5_1_" class="st11" d="M619,56h76c6.6,0,12,5.4,12,12l0,0c0,6.6-5.4,12-12,12h-76c-6.6,0-12-5.4-12-12l0,0
						C607,61.4,612.4,56,619,56z"/>
				</g>
			</g>
			<text transform="matrix(1 0 0 1 635.099 42)" class="st3 st4 st13">Modifier</text>
			<text transform="matrix(1 0 0 1 635.099 72)" class="st3 st4 st13">Modifier</text>
			<g id="Rectangle-Copy-12">
				<g class="st14">
					<path id="path-7_2_" d="M619,86h76c6.6,0,12,5.4,12,12l0,0c0,6.6-5.4,12-12,12h-76c-6.6,0-12-5.4-12-12l0,0
						C607,91.4,612.4,86,619,86z"/>
				</g>
				<g>
					<path id="path-7_1_" class="st11" d="M619,86h76c6.6,0,12,5.4,12,12l0,0c0,6.6-5.4,12-12,12h-76c-6.6,0-12-5.4-12-12l0,0
						C607,91.4,612.4,86,619,86z"/>
				</g>
			</g>
			<text transform="matrix(1 0 0 1 635.099 102)" class="st3 st4 st13">Modifier</text>
			<g id="Rectangle-Copy-13">
				<g class="st15">
					<path id="path-9_2_" d="M619,116h76c6.6,0,12,5.4,12,12l0,0c0,6.6-5.4,12-12,12h-76c-6.6,0-12-5.4-12-12l0,0
						C607,121.4,612.4,116,619,116z"/>
				</g>
				<g>
					<path id="path-9_1_" class="st11" d="M619,116h76c6.6,0,12,5.4,12,12l0,0c0,6.6-5.4,12-12,12h-76c-6.6,0-12-5.4-12-12l0,0
						C607,121.4,612.4,116,619,116z"/>
				</g>
			</g>
			<text transform="matrix(1 0 0 1 635.099 132)" class="st3 st4 st13">Modifier</text>
		</g>
	</g>
</g>
</svg>
