<?xml version="1.0" encoding="utf-8"?>
<!-- Generator: Adobe Illustrator 25.1.0, SVG Export Plug-In . SVG Version: 6.00 Build 0)  -->
<svg version="1.1" id="Calque_1" xmlns="http://www.w3.org/2000/svg" xmlns:xlink="http://www.w3.org/1999/xlink" x="0px" y="0px"
	 viewBox="0 0 640 512" style="enable-background:new 0 0 640 512;" xml:space="preserve">
<style type="text/css">
	.st0{fill:#009A14;}
</style>
<path class="st0" d="M608,64H32C14.3,64,0,78.3,0,96v320c0,17.7,14.3,32,32,32h576c17.7,0,32-14.3,32-32V96
	C640,78.3,625.7,64,608,64z M592,336c-35.3,0-64,28.6-64,64H112c0-35.4-28.7-64-64-64V176c35.3,0,64-28.6,64-64h416
	c0,35.4,28.7,64,64,64V336z M320,160c-44.2,0-80,43-80,96c0,53,35.8,96,80,96c44.2,0,80-43,80-96C400,203,364.2,160,320,160z"/>
</svg>
