<?xml version="1.0" encoding="utf-8"?>
<!-- Generator: Adobe Illustrator 24.1.2, SVG Export Plug-In . SVG Version: 6.00 Build 0)  -->
<svg version="1.1" id="Calque_1" xmlns="http://www.w3.org/2000/svg" xmlns:xlink="http://www.w3.org/1999/xlink" x="0px" y="0px"
	 viewBox="0 0 24 24" style="enable-background:new 0 0 24 24;" xml:space="preserve">
<style type="text/css">
	.st0{fill:#FFFFFF;}
</style>
<path class="st0" d="M16.9,5l3.8,3.8c0.2,0.2,0.2,0.4,0,0.6l-9.1,9.1l-3.9,0.4c-0.5,0.1-1-0.4-0.9-0.9l0.4-3.9L16.3,5
	C16.5,4.8,16.7,4.8,16.9,5L16.9,5z M23.6,4l-2-2c-0.6-0.6-1.7-0.6-2.3,0l-1.5,1.5c-0.2,0.2-0.2,0.4,0,0.6l3.8,3.8
	c0.2,0.2,0.4,0.2,0.6,0l1.5-1.5C24.3,5.7,24.3,4.6,23.6,4z M16.1,15.9v4.2H2.8V6.8h9.6c0.1,0,0.3-0.1,0.4-0.1L14.4,5
	c0.3-0.3,0.1-0.9-0.4-0.9H2.1c-1.1,0-2,0.9-2,2v14.7c0,1.1,0.9,2,2,2h14.7c1.1,0,2-0.9,2-2v-6.6c0-0.4-0.5-0.7-0.9-0.4l-1.7,1.7
	C16.2,15.7,16.1,15.8,16.1,15.9z"/>
</svg>
